<svg xmlns="http://www.w3.org/2000/svg" xmlns:xlink="http://www.w3.org/1999/xlink" width="110" zoomAndPan="magnify" viewBox="0 0 82.5 33.749998" height="45" preserveAspectRatio="xMidYMid meet" version="1.0"><defs><g/><clipPath id="33fb55fc7d"><path d="M 1.503906 12.230469 L 15.734375 12.230469 L 15.734375 26.464844 L 1.503906 26.464844 Z M 1.503906 12.230469 " clip-rule="nonzero"/></clipPath><clipPath id="ceedb86722"><path d="M 7.003906 7.273438 L 21.238281 7.273438 L 21.238281 21.503906 L 7.003906 21.503906 Z M 7.003906 7.273438 " clip-rule="nonzero"/></clipPath></defs><g clip-path="url(#33fb55fc7d)"><path fill="#f32a4c" d="M 1.523438 19.347656 C 1.523438 17.347656 1.53125 15.347656 1.515625 13.347656 C 1.511719 12.738281 1.976562 12.234375 2.640625 12.234375 C 6.53125 12.238281 10.421875 12.238281 14.3125 12.238281 C 14.480469 12.238281 14.648438 12.234375 14.8125 12.253906 C 15.414062 12.332031 15.722656 12.839844 15.722656 13.363281 C 15.71875 16.0625 15.722656 18.761719 15.722656 21.457031 C 15.722656 22.734375 15.71875 24.011719 15.722656 25.285156 C 15.726562 25.632812 15.628906 25.933594 15.378906 26.179688 C 15.183594 26.375 14.925781 26.433594 14.660156 26.453125 C 14.523438 26.464844 14.386719 26.457031 14.25 26.457031 C 10.449219 26.457031 6.652344 26.457031 2.851562 26.457031 C 2.566406 26.457031 2.289062 26.457031 2.03125 26.296875 C 1.726562 26.113281 1.554688 25.847656 1.527344 25.496094 C 1.511719 25.273438 1.523438 25.050781 1.523438 24.828125 C 1.523438 23 1.523438 21.175781 1.523438 19.347656 Z M 3.570312 19.347656 C 3.570312 20.933594 3.570312 22.519531 3.570312 24.105469 C 3.570312 24.15625 3.554688 24.214844 3.574219 24.253906 C 3.605469 24.308594 3.65625 24.359375 3.707031 24.386719 C 3.753906 24.410156 3.816406 24.394531 3.875 24.394531 C 7.039062 24.394531 10.203125 24.398438 13.367188 24.398438 C 13.40625 24.398438 13.449219 24.398438 13.488281 24.394531 C 13.601562 24.390625 13.667969 24.335938 13.667969 24.214844 C 13.667969 24.164062 13.667969 24.113281 13.667969 24.0625 C 13.671875 20.882812 13.671875 17.703125 13.671875 14.523438 C 13.671875 14.351562 13.632812 14.308594 13.457031 14.304688 C 13.398438 14.300781 13.335938 14.300781 13.277344 14.300781 C 10.140625 14.300781 7.007812 14.300781 3.871094 14.300781 C 3.578125 14.300781 3.570312 14.308594 3.570312 14.59375 C 3.570312 16.179688 3.570312 17.765625 3.570312 19.347656 Z M 3.570312 19.347656 " fill-opacity="1" fill-rule="nonzero"/></g><g clip-path="url(#ceedb86722)"><path fill="#f32a4c" d="M 7.023438 14.386719 C 7.023438 12.386719 7.035156 10.386719 7.019531 8.386719 C 7.015625 7.78125 7.476562 7.277344 8.144531 7.277344 C 12.035156 7.28125 15.925781 7.277344 19.816406 7.28125 C 19.980469 7.28125 20.148438 7.273438 20.316406 7.296875 C 20.917969 7.371094 21.226562 7.878906 21.226562 8.402344 C 21.222656 11.101562 21.222656 13.800781 21.222656 16.5 C 21.222656 17.777344 21.21875 19.050781 21.226562 20.328125 C 21.226562 20.675781 21.128906 20.976562 20.882812 21.21875 C 20.683594 21.414062 20.429688 21.476562 20.160156 21.496094 C 20.023438 21.507812 19.886719 21.5 19.75 21.5 C 15.953125 21.5 12.152344 21.5 8.355469 21.5 C 8.070312 21.5 7.789062 21.496094 7.53125 21.339844 C 7.226562 21.152344 7.054688 20.890625 7.03125 20.539062 C 7.015625 20.316406 7.023438 20.09375 7.023438 19.871094 C 7.023438 18.042969 7.023438 16.214844 7.023438 14.386719 Z M 9.074219 14.390625 C 9.074219 14.390625 9.074219 14.390625 9.070312 14.390625 C 9.070312 15.976562 9.070312 17.558594 9.070312 19.144531 C 9.070312 19.195312 9.058594 19.253906 9.078125 19.296875 C 9.105469 19.347656 9.15625 19.402344 9.210938 19.429688 C 9.257812 19.449219 9.320312 19.4375 9.375 19.4375 C 12.539062 19.4375 15.707031 19.4375 18.871094 19.4375 C 18.910156 19.4375 18.953125 19.4375 18.992188 19.4375 C 19.105469 19.429688 19.171875 19.375 19.171875 19.257812 C 19.171875 19.207031 19.171875 19.15625 19.171875 19.105469 C 19.171875 15.925781 19.171875 12.746094 19.171875 9.566406 C 19.171875 9.390625 19.132812 9.351562 18.960938 9.34375 C 18.898438 9.34375 18.839844 9.34375 18.777344 9.34375 C 15.644531 9.34375 12.507812 9.34375 9.375 9.34375 C 9.078125 9.34375 9.074219 9.347656 9.074219 9.636719 C 9.074219 11.222656 9.074219 12.804688 9.074219 14.390625 Z M 9.074219 14.390625 " fill-opacity="1" fill-rule="nonzero"/></g><g fill="#f32a4c" fill-opacity="1"><g transform="translate(23.012972, 22.038256)"><g><path d="M 7.414062 -0.96875 L 2.484375 -0.96875 L 2.484375 -9.742188 C 2.484375 -9.847656 2.425781 -9.90625 2.324219 -9.90625 L 1.570312 -9.90625 C 1.457031 -9.90625 1.398438 -9.847656 1.398438 -9.742188 L 1.398438 -0.167969 C 1.398438 -0.0585938 1.457031 0 1.570312 0 L 7.40625 0 C 7.515625 0 7.574219 -0.0585938 7.574219 -0.167969 L 7.574219 -0.800781 C 7.574219 -0.910156 7.515625 -0.96875 7.414062 -0.96875 Z M 7.414062 -0.96875 "/></g></g></g><g fill="#f32a4c" fill-opacity="1"><g transform="translate(30.78293, 22.038256)"><g><path d="M 1.496094 -7.847656 C 1.867188 -7.847656 2.152344 -8.136719 2.152344 -8.5 C 2.152344 -8.855469 1.867188 -9.15625 1.496094 -9.15625 C 1.132812 -9.15625 0.847656 -8.855469 0.847656 -8.5 C 0.847656 -8.136719 1.132812 -7.847656 1.496094 -7.847656 Z M 1.835938 -6.574219 L 1.160156 -6.574219 C 1.054688 -6.574219 1.007812 -6.519531 1.007812 -6.417969 L 1.007812 -0.144531 C 1.007812 -0.046875 1.054688 0.0078125 1.160156 0.0078125 L 1.835938 0.0078125 C 1.9375 0.0078125 1.996094 -0.046875 1.996094 -0.144531 L 1.996094 -6.417969 C 1.996094 -6.519531 1.9375 -6.574219 1.835938 -6.574219 Z M 1.835938 -6.574219 "/></g></g></g><g fill="#f32a4c" fill-opacity="1"><g transform="translate(33.78289, 22.038256)"><g><path d="M 2.894531 -5.71875 C 3.457031 -5.71875 3.925781 -5.511719 4.242188 -5.148438 C 4.320312 -5.0625 4.472656 -5.050781 4.550781 -5.121094 L 4.921875 -5.464844 C 5.023438 -5.5625 5.03125 -5.660156 4.941406 -5.765625 C 4.445312 -6.359375 3.703125 -6.703125 2.894531 -6.703125 C 1.628906 -6.703125 0.839844 -5.863281 0.839844 -4.914062 C 0.839844 -3.808594 1.574219 -3.320312 2.929688 -2.914062 C 3.867188 -2.617188 4.328125 -2.289062 4.328125 -1.761719 C 4.328125 -1.203125 3.734375 -0.839844 2.960938 -0.839844 C 2.386719 -0.839844 1.679688 -1.183594 1.347656 -1.632812 C 1.257812 -1.738281 1.125 -1.746094 1.046875 -1.667969 L 0.644531 -1.25 C 0.558594 -1.164062 0.539062 -1.066406 0.632812 -0.964844 C 1.132812 -0.300781 2.082031 0.136719 2.960938 0.136719 C 4.335938 0.136719 5.335938 -0.566406 5.335938 -1.726562 C 5.335938 -2.832031 4.609375 -3.398438 3.203125 -3.828125 C 2.152344 -4.144531 1.835938 -4.414062 1.835938 -4.847656 C 1.835938 -5.355469 2.277344 -5.71875 2.894531 -5.71875 Z M 2.894531 -5.71875 "/></g></g></g><g fill="#f32a4c" fill-opacity="1"><g transform="translate(39.678688, 22.038256)"><g><path d="M 3.769531 -0.800781 C 2.933594 -0.800781 2.328125 -1.339844 2.328125 -2.171875 L 2.328125 -5.734375 L 3.734375 -5.734375 C 3.832031 -5.734375 3.886719 -5.792969 3.886719 -5.882812 L 3.886719 -6.421875 C 3.886719 -6.515625 3.828125 -6.566406 3.734375 -6.566406 L 2.324219 -6.566406 L 2.324219 -8.722656 C 2.324219 -8.832031 2.257812 -8.875 2.148438 -8.851562 L 1.464844 -8.703125 C 1.378906 -8.675781 1.339844 -8.609375 1.339844 -8.527344 L 1.339844 -6.566406 L 0.4375 -6.566406 C 0.339844 -6.566406 0.285156 -6.507812 0.285156 -6.410156 L 0.285156 -5.882812 C 0.285156 -5.792969 0.339844 -5.734375 0.4375 -5.734375 L 1.339844 -5.734375 L 1.339844 -2.1875 C 1.339844 -0.75 2.324219 0.136719 3.753906 0.136719 C 3.890625 0.136719 3.988281 0.0585938 3.988281 -0.046875 L 3.988281 -0.625 C 3.988281 -0.722656 3.898438 -0.800781 3.769531 -0.800781 Z M 3.769531 -0.800781 "/></g></g></g><g fill="#f32a4c" fill-opacity="1"><g transform="translate(44.344569, 22.038256)"><g><path d="M 3.878906 -6.703125 C 2.011719 -6.703125 0.546875 -5.195312 0.546875 -3.273438 C 0.546875 -1.378906 2.050781 0.144531 3.988281 0.144531 C 4.804688 0.144531 5.753906 -0.175781 6.351562 -0.722656 C 6.421875 -0.792969 6.429688 -0.898438 6.371094 -0.96875 L 6.011719 -1.445312 C 5.953125 -1.511719 5.851562 -1.53125 5.773438 -1.464844 C 5.296875 -1.042969 4.621094 -0.808594 4.023438 -0.808594 C 2.734375 -0.808594 1.71875 -1.707031 1.582031 -2.855469 L 6.59375 -2.855469 C 6.890625 -2.855469 7.101562 -3.1875 7.101562 -3.5 C 7.101562 -5.347656 5.734375 -6.703125 3.878906 -6.703125 Z M 3.851562 -5.765625 C 5.089844 -5.765625 6 -4.953125 6.128906 -3.769531 L 1.589844 -3.769531 C 1.761719 -4.914062 2.699219 -5.765625 3.851562 -5.765625 Z M 3.851562 -5.765625 "/></g></g></g><g fill="#f32a4c" fill-opacity="1"><g transform="translate(51.990886, 22.038256)"><g><path d="M 5.433594 -6.175781 C 5 -6.5 4.4375 -6.703125 3.96875 -6.703125 C 3.085938 -6.703125 2.277344 -6.164062 1.886719 -5.382812 L 1.726562 -6.449219 C 1.707031 -6.527344 1.640625 -6.574219 1.5625 -6.574219 L 1.164062 -6.574219 C 1.066406 -6.574219 1.007812 -6.515625 1.007812 -6.410156 L 1.007812 -0.144531 C 1.007812 -0.0390625 1.0625 0.0117188 1.164062 0.0117188 L 1.835938 0.0117188 C 1.9375 0.0117188 1.996094 -0.0390625 1.996094 -0.144531 L 1.996094 -3.898438 C 1.996094 -4.953125 2.796875 -5.832031 3.851562 -5.832031 C 4.199219 -5.832031 4.601562 -5.679688 4.925781 -5.433594 C 5.023438 -5.363281 5.117188 -5.367188 5.179688 -5.464844 L 5.480469 -5.941406 C 5.53125 -6.027344 5.503906 -6.117188 5.433594 -6.175781 Z M 5.433594 -6.175781 "/></g></g></g><g fill="#f32a4c" fill-opacity="1"><g transform="translate(57.828118, 22.038256)"><g><path d="M 4.601562 -6.714844 C 3.496094 -6.714844 2.550781 -6.175781 1.992188 -5.296875 L 1.996094 -10.046875 C 1.996094 -10.144531 1.9375 -10.203125 1.847656 -10.203125 L 1.171875 -10.203125 C 1.066406 -10.203125 1.007812 -10.144531 1.007812 -10.046875 L 1.007812 -0.148438 C 1.007812 -0.0507812 1.066406 0.0117188 1.164062 0.0117188 L 1.5625 0.0117188 C 1.640625 0.0117188 1.707031 -0.0390625 1.726562 -0.109375 L 1.917969 -1.398438 C 2.464844 -0.457031 3.441406 0.128906 4.589844 0.128906 C 6.421875 0.128906 7.84375 -1.355469 7.84375 -3.28125 C 7.84375 -5.246094 6.429688 -6.714844 4.601562 -6.714844 Z M 4.425781 -0.839844 C 3.058594 -0.839844 1.964844 -1.917969 1.964844 -3.285156 C 1.964844 -4.671875 3.066406 -5.738281 4.433594 -5.738281 C 5.765625 -5.738281 6.839844 -4.671875 6.839844 -3.285156 C 6.839844 -1.917969 5.757812 -0.839844 4.425781 -0.839844 Z M 4.425781 -0.839844 "/></g></g></g><g fill="#f32a4c" fill-opacity="1"><g transform="translate(66.21629, 22.038256)"><g><path d="M 0.546875 -3.28125 C 0.546875 -1.375 2.070312 0.136719 4.007812 0.136719 C 5.933594 0.136719 7.445312 -1.375 7.445312 -3.28125 C 7.445312 -5.199219 5.933594 -6.703125 4.007812 -6.703125 C 2.070312 -6.703125 0.546875 -5.199219 0.546875 -3.28125 Z M 1.550781 -3.28125 C 1.550781 -4.679688 2.617188 -5.753906 4.003906 -5.753906 C 5.382812 -5.753906 6.441406 -4.679688 6.441406 -3.28125 C 6.441406 -1.894531 5.382812 -0.8125 4.003906 -0.8125 C 2.617188 -0.8125 1.550781 -1.894531 1.550781 -3.28125 Z M 1.550781 -3.28125 "/></g></g></g><g fill="#f32a4c" fill-opacity="1"><g transform="translate(74.207501, 22.038256)"><g><path d="M 6.109375 -0.320312 L 3.964844 -3.410156 L 5.972656 -6.339844 C 6.066406 -6.46875 6.027344 -6.578125 5.863281 -6.578125 L 5.160156 -6.578125 C 5.070312 -6.578125 4.972656 -6.519531 4.902344 -6.417969 L 3.359375 -4.082031 L 1.816406 -6.417969 C 1.746094 -6.527344 1.640625 -6.578125 1.554688 -6.578125 L 0.851562 -6.578125 C 0.691406 -6.578125 0.644531 -6.476562 0.742188 -6.339844 L 2.746094 -3.410156 L 0.605469 -0.320312 C 0.476562 -0.128906 0.535156 0.0078125 0.742188 0.0078125 L 1.445312 0.0078125 C 1.542969 0.0078125 1.640625 -0.0390625 1.699219 -0.148438 L 3.359375 -2.71875 L 5.03125 -0.136719 C 5.078125 -0.046875 5.175781 0.0078125 5.265625 0.0078125 L 5.980469 0.0078125 C 6.195312 0.0078125 6.226562 -0.136719 6.109375 -0.320312 Z M 6.109375 -0.320312 "/></g></g></g></svg>